<svg width="70" height="70" viewBox="0 0 70 70" fill="none" xmlns="http://www.w3.org/2000/svg">
<path d="M35 70C54.33 70 70 54.33 70 35C70 15.67 54.33 0 35 0C15.67 0 0 15.67 0 35C0 54.33 15.67 70 35 70Z" fill="#C5CEF7"/>
<path d="M42.1522 35.2392L55.5163 21.875C56.4243 20.9552 56.9315 19.7135 56.9273 18.421C56.9231 17.1285 56.4078 15.8902 55.4938 14.9763C54.5799 14.0623 53.3416 13.547 52.0491 13.5428C50.7566 13.5386 49.5149 14.0458 48.5951 14.9538L35.2389 28.318L21.4817 14.5608C20.5619 13.6528 19.3202 13.1456 18.0277 13.1498C16.7352 13.154 15.4969 13.6693 14.583 14.5832C13.669 15.4972 13.1537 16.7355 13.1495 18.028C13.1453 19.3205 13.6525 20.5622 14.5605 21.482L28.3177 35.2392L15.0301 48.5268C14.5682 48.9795 14.2007 49.5193 13.9488 50.1149C13.6969 50.7106 13.5656 51.3503 13.5625 51.997C13.5595 52.6437 13.6847 53.2847 13.931 53.8827C14.1773 54.4807 14.5397 55.0239 14.9973 55.4809C15.4549 55.9379 15.9986 56.2997 16.5969 56.5452C17.1952 56.7907 17.8363 56.9151 18.483 56.9112C19.1297 56.9074 19.7692 56.7753 20.3646 56.5226C20.9599 56.27 21.4992 55.9018 21.9513 55.4393L35.2389 42.1524L48.1335 55.0463C49.0579 55.9313 50.2922 56.4191 51.5719 56.405C52.8516 56.391 54.0748 55.8763 54.9796 54.9711C55.8843 54.066 56.3985 52.8425 56.412 51.5628C56.4255 50.2831 55.9373 49.0491 55.0518 48.125L42.1522 35.2392Z" fill="#231F20" stroke="#707070"/>
</svg>
