<svg width="39" height="40" viewBox="0 0 39 40" fill="none" xmlns="http://www.w3.org/2000/svg">
<path d="M28.9053 5H9.63481C8.66484 5.00596 7.71919 5.31566 6.92161 5.88858C6.12402 6.4615 5.51164 7.27095 5.1646 8.21101C4.81756 9.15108 4.75202 10.178 4.97656 11.1573C5.20109 12.1367 5.70525 13.0229 6.42306 13.7V30C6.42306 31.3261 6.93063 32.5979 7.83411 33.5355C8.73759 34.4732 9.96297 35 11.2407 35H27.2994C28.5772 35 29.8025 34.4732 30.706 33.5355C31.6095 32.5979 32.1171 31.3261 32.1171 30V13.7C32.8349 13.0229 33.339 12.1367 33.5636 11.1573C33.7881 10.178 33.7226 9.15108 33.3755 8.21101C33.0285 7.27095 32.4161 6.4615 31.6185 5.88858C30.8209 5.31566 29.8753 5.00596 28.9053 5V5ZM24.0877 21.8833C24.0877 22.2679 23.9405 22.6367 23.6785 22.9086C23.4165 23.1806 23.0611 23.3333 22.6906 23.3333H15.8495C15.479 23.3333 15.1237 23.1806 14.8616 22.9086C14.5996 22.6367 14.4524 22.2679 14.4524 21.8833V21.45C14.4524 21.0654 14.5996 20.6966 14.8616 20.4247C15.1237 20.1528 15.479 20 15.8495 20H22.6906C23.0611 20 23.4165 20.1528 23.6785 20.4247C23.9405 20.6966 24.0877 21.0654 24.0877 21.45V21.8833ZM28.9053 11.6667H9.63481C9.2089 11.6667 8.80044 11.4911 8.49928 11.1785C8.19812 10.866 8.02893 10.442 8.02893 10C8.02893 9.55797 8.19812 9.13405 8.49928 8.82149C8.80044 8.50893 9.2089 8.33333 9.63481 8.33333H28.9053C29.3312 8.33333 29.7397 8.50893 30.0408 8.82149C30.342 9.13405 30.5112 9.55797 30.5112 10C30.5112 10.442 30.342 10.866 30.0408 11.1785C29.7397 11.4911 29.3312 11.6667 28.9053 11.6667Z" fill="#231F20"/>
</svg>
