<svg width="39" height="40" viewBox="0 0 39 40" fill="none" xmlns="http://www.w3.org/2000/svg">
<path d="M28.9056 5H9.63505C8.66508 5.00596 7.71944 5.31566 6.92185 5.88858C6.12427 6.4615 5.51189 7.27095 5.16485 8.21101C4.81781 9.15108 4.75227 10.178 4.9768 11.1573C5.20134 12.1367 5.70549 13.0229 6.4233 13.7V30C6.4233 31.3261 6.93087 32.5979 7.83435 33.5355C8.73783 34.4732 9.96321 35 11.2409 35H27.2997C28.5774 35 29.8028 34.4732 30.7063 33.5355C31.6098 32.5979 32.1173 31.3261 32.1173 30V13.7C32.8351 13.0229 33.3393 12.1367 33.5638 11.1573C33.7884 10.178 33.7228 9.15108 33.3758 8.21101C33.0287 7.27095 32.4164 6.4615 31.6188 5.88858C30.8212 5.31566 29.8755 5.00596 28.9056 5V5ZM24.0879 21.8833C24.0879 22.2679 23.9407 22.6367 23.6787 22.9086C23.4167 23.1806 23.0614 23.3333 22.6908 23.3333H15.8498C15.4793 23.3333 15.1239 23.1806 14.8619 22.9086C14.5999 22.6367 14.4527 22.2679 14.4527 21.8833V21.45C14.4527 21.0654 14.5999 20.6966 14.8619 20.4247C15.1239 20.1528 15.4793 20 15.8498 20H22.6908C23.0614 20 23.4167 20.1528 23.6787 20.4247C23.9407 20.6966 24.0879 21.0654 24.0879 21.45V21.8833ZM28.9056 11.6667H9.63505C9.20915 11.6667 8.80069 11.4911 8.49953 11.1785C8.19837 10.866 8.02918 10.442 8.02918 10C8.02918 9.55797 8.19837 9.13405 8.49953 8.82149C8.80069 8.50893 9.20915 8.33333 9.63505 8.33333H28.9056C29.3315 8.33333 29.7399 8.50893 30.0411 8.82149C30.3423 9.13405 30.5114 9.55797 30.5114 10C30.5114 10.442 30.3423 10.866 30.0411 11.1785C29.7399 11.4911 29.3315 11.6667 28.9056 11.6667Z" fill="#231F20"/>
</svg>
