<svg width="39" height="40" viewBox="0 0 39 40" fill="none" xmlns="http://www.w3.org/2000/svg">
<path d="M28.9058 5H9.6353C8.66533 5.00596 7.71968 5.31566 6.9221 5.88858C6.12451 6.4615 5.51213 7.27095 5.16509 8.21101C4.81805 9.15108 4.75251 10.178 4.97705 11.1573C5.20158 12.1367 5.70574 13.0229 6.42354 13.7V30C6.42354 31.3261 6.93111 32.5979 7.8346 33.5355C8.73808 34.4732 9.96346 35 11.2412 35H27.2999C28.5776 35 29.803 34.4732 30.7065 33.5355C31.61 32.5979 32.1176 31.3261 32.1176 30V13.7C32.8354 13.0229 33.3395 12.1367 33.5641 11.1573C33.7886 10.178 33.7231 9.15108 33.376 8.21101C33.029 7.27095 32.4166 6.4615 31.619 5.88858C30.8214 5.31566 29.8758 5.00596 28.9058 5V5ZM24.0882 21.8833C24.0882 22.2679 23.941 22.6367 23.679 22.9086C23.417 23.1806 23.0616 23.3333 22.6911 23.3333H15.85C15.4795 23.3333 15.1241 23.1806 14.8621 22.9086C14.6001 22.6367 14.4529 22.2679 14.4529 21.8833V21.45C14.4529 21.0654 14.6001 20.6966 14.8621 20.4247C15.1241 20.1528 15.4795 20 15.85 20H22.6911C23.0616 20 23.417 20.1528 23.679 20.4247C23.941 20.6966 24.0882 21.0654 24.0882 21.45V21.8833ZM28.9058 11.6667H9.6353C9.20939 11.6667 8.80093 11.4911 8.49977 11.1785C8.19861 10.866 8.02942 10.442 8.02942 10C8.02942 9.55797 8.19861 9.13405 8.49977 8.82149C8.80093 8.50893 9.20939 8.33333 9.6353 8.33333H28.9058C29.3317 8.33333 29.7402 8.50893 30.0413 8.82149C30.3425 9.13405 30.5117 9.55797 30.5117 10C30.5117 10.442 30.3425 10.866 30.0413 11.1785C29.7402 11.4911 29.3317 11.6667 28.9058 11.6667Z" fill="#231F20"/>
</svg>
