<svg width="39" height="40" viewBox="0 0 39 40" fill="none" xmlns="http://www.w3.org/2000/svg">
<path d="M28.9056 5H9.63511C8.66515 5.00596 7.7195 5.31566 6.92191 5.88858C6.12433 6.4615 5.51195 7.27095 5.16491 8.21101C4.81787 9.15108 4.75233 10.178 4.97686 11.1573C5.2014 12.1367 5.70556 13.0229 6.42336 13.7V30C6.42336 31.3261 6.93093 32.5979 7.83441 33.5355C8.73789 34.4732 9.96328 35 11.241 35H27.2998C28.5775 35 29.8029 34.4732 30.7063 33.5355C31.6098 32.5979 32.1174 31.3261 32.1174 30V13.7C32.8352 13.0229 33.3393 12.1367 33.5639 11.1573C33.7884 10.178 33.7229 9.15108 33.3758 8.21101C33.0288 7.27095 32.4164 6.4615 31.6188 5.88858C30.8212 5.31566 29.8756 5.00596 28.9056 5V5ZM24.088 21.8833C24.088 22.2679 23.9408 22.6367 23.6788 22.9086C23.4168 23.1806 23.0614 23.3333 22.6909 23.3333H15.8499C15.4793 23.3333 15.124 23.1806 14.8619 22.9086C14.5999 22.6367 14.4527 22.2679 14.4527 21.8833V21.45C14.4527 21.0654 14.5999 20.6966 14.8619 20.4247C15.124 20.1528 15.4793 20 15.8499 20H22.6909C23.0614 20 23.4168 20.1528 23.6788 20.4247C23.9408 20.6966 24.088 21.0654 24.088 21.45V21.8833ZM28.9056 11.6667H9.63511C9.20921 11.6667 8.80075 11.4911 8.49959 11.1785C8.19843 10.866 8.02924 10.442 8.02924 10C8.02924 9.55797 8.19843 9.13405 8.49959 8.82149C8.80075 8.50893 9.20921 8.33333 9.63511 8.33333H28.9056C29.3315 8.33333 29.74 8.50893 30.0412 8.82149C30.3423 9.13405 30.5115 9.55797 30.5115 10C30.5115 10.442 30.3423 10.866 30.0412 11.1785C29.74 11.4911 29.3315 11.6667 28.9056 11.6667Z" fill="#231F20"/>
</svg>
