<svg width="326" height="100" viewBox="0 0 326 100" fill="none" xmlns="http://www.w3.org/2000/svg">
<path d="M48 100C74.5097 100 96 78.5097 96 52C96 25.4903 74.5097 4 48 4C21.4903 4 0 25.4903 0 52C0 78.5097 21.4903 100 48 100Z" fill="white"/>
<path d="M57.8093 52.3283L76.1373 34.0003C77.3825 32.7387 78.0781 31.0359 78.0723 29.2633C78.0665 27.4908 77.3598 25.7925 76.1064 24.5391C74.8531 23.2857 73.1548 22.579 71.3822 22.5732C69.6097 22.5674 67.9068 23.2631 66.6453 24.5083L48.3283 42.8363L29.4613 23.9693C28.1997 22.7241 26.4969 22.0284 24.7243 22.0342C22.9518 22.04 21.2535 22.7467 20.0001 24.0001C18.7467 25.2535 18.04 26.9518 18.0342 28.7243C18.0284 30.4969 18.7241 32.1997 19.9693 33.4613L38.8363 52.3283L20.6133 70.5513C19.9798 71.1721 19.4758 71.9124 19.1303 72.7293C18.7848 73.5462 18.6048 74.4235 18.6006 75.3104C18.5965 76.1973 18.7682 77.0763 19.1059 77.8964C19.4437 78.7165 19.9407 79.4615 20.5683 80.0883C21.1958 80.7151 21.9415 81.2112 22.762 81.5479C23.5826 81.8846 24.4617 82.0552 25.3487 82.0499C26.2356 82.0446 27.1127 81.8635 27.9291 81.517C28.7456 81.1705 29.4852 80.6655 30.1053 80.0313L48.3283 61.8093L66.0123 79.4923C67.28 80.706 68.9727 81.3749 70.7277 81.3557C72.4827 81.3364 74.1604 80.6305 75.4011 79.3892C76.6419 78.1479 77.3471 76.4699 77.3657 74.7149C77.3842 72.9599 76.7146 71.2675 75.5003 70.0003L57.8093 52.3283Z" fill="#231F20" stroke="#707070"/>
<path d="M278 96C304.51 96 326 74.5097 326 48C326 21.4903 304.51 0 278 0C251.49 0 230 21.4903 230 48C230 74.5097 251.49 96 278 96Z" fill="white"/>
<path d="M278 95.5C304.234 95.5 325.5 74.2335 325.5 48C325.5 21.7665 304.234 0.5 278 0.5C251.766 0.5 230.5 21.7665 230.5 48C230.5 74.2335 251.766 95.5 278 95.5Z" stroke="#707070"/>
<path d="M269.524 73.9997C268.772 74.0012 268.026 73.8536 267.331 73.5657C266.635 73.2777 266.004 72.8549 265.472 72.3217L243.672 50.5217C242.613 49.4459 242.021 47.9947 242.027 46.4846C242.033 44.9746 242.636 43.5281 243.704 42.4606C244.772 41.3932 246.219 40.7913 247.729 40.7863C249.239 40.7812 250.69 41.3734 251.765 42.4337L269.525 60.1937L305.029 24.6747C306.102 23.6018 307.557 22.999 309.075 22.999C310.592 22.999 312.047 23.6018 313.12 24.6747C314.193 25.7477 314.796 27.2029 314.796 28.7202C314.796 30.2376 314.193 31.6928 313.12 32.7657L273.563 72.3217C273.033 72.8532 272.404 73.275 271.711 73.5629C271.018 73.8509 270.275 73.9993 269.524 73.9997Z" fill="#1F231F"/>
</svg>
