<svg width="62" height="62" viewBox="0 0 62 62" fill="none" xmlns="http://www.w3.org/2000/svg">
<path d="M40.8093 31.3283L59.1373 13.0003C60.3825 11.7387 61.0781 10.0359 61.0723 8.26332C61.0665 6.49077 60.3598 4.79247 59.1064 3.53908C57.8531 2.28569 56.1548 1.57899 54.3822 1.57322C52.6097 1.56744 50.9068 2.26306 49.6453 3.50826L31.3283 21.8363L12.4613 2.96926C11.1997 1.72406 9.49686 1.02844 7.72432 1.03422C5.95177 1.03999 4.25347 1.74669 3.00008 3.00008C1.74669 4.25347 1.03999 5.95177 1.03422 7.72432C1.02844 9.49686 1.72406 11.1997 2.96926 12.4613L21.8363 31.3283L3.61326 49.5513C2.97982 50.1721 2.47578 50.9124 2.13031 51.7293C1.78485 52.5462 1.60482 53.4235 1.60063 54.3104C1.59645 55.1973 1.7682 56.0763 2.10595 56.8964C2.44369 57.7165 2.94073 58.4615 3.56829 59.0883C4.19585 59.7151 4.94148 60.2112 5.76202 60.5479C6.58257 60.8846 7.46175 61.0552 8.34868 61.0499C9.2356 61.0446 10.1127 60.8635 10.9291 60.517C11.7456 60.1705 12.4852 59.6655 13.1053 59.0313L31.3283 40.8093L49.0123 58.4923C50.28 59.706 51.9727 60.3749 53.7277 60.3557C55.4827 60.3364 57.1604 59.6305 58.4011 58.3892C59.6419 57.1479 60.3471 55.4699 60.3657 53.7149C60.3842 51.9599 59.7146 50.2675 58.5003 49.0003L40.8093 31.3283Z" fill="#231F20" stroke="#707070"/>
</svg>
