<svg width="73" height="51" viewBox="0 0 73 51" fill="none" xmlns="http://www.w3.org/2000/svg">
<path d="M27.5243 50.9997C26.7716 51.0012 26.0261 50.8536 25.3306 50.5657C24.6352 50.2777 24.0036 49.8549 23.4723 49.3217L1.67233 27.5217C0.612704 26.4459 0.0214124 24.9947 0.0273886 23.4846C0.0333648 21.9746 0.636124 20.5281 1.70424 19.4606C2.77235 18.3932 4.21917 17.7913 5.72924 17.7863C7.2393 17.7812 8.69012 18.3734 9.76533 19.4337L27.5253 37.1937L63.0293 1.67473C64.1023 0.601795 65.5575 -0.000976574 67.0748 -0.000976562C68.5922 -0.000976551 70.0474 0.601795 71.1203 1.67473C72.1933 2.74766 72.796 4.20287 72.796 5.72022C72.796 7.23758 72.1933 8.69279 71.1203 9.76572L31.5633 49.3217C31.0335 49.8532 30.404 50.275 29.7109 50.5629C29.0179 50.8509 28.2748 50.9993 27.5243 50.9997Z" fill="#1F231F"/>
</svg>
