<svg width="37" height="37" viewBox="0 0 37 37" fill="none" xmlns="http://www.w3.org/2000/svg">
<path d="M18.5 36C28.165 36 36 28.165 36 18.5C36 8.83502 28.165 1 18.5 1C8.83502 1 1 8.83502 1 18.5C1 28.165 8.83502 36 18.5 36Z" fill="white"/>
<path d="M18.5 35.8177C28.0643 35.8177 35.8177 28.0643 35.8177 18.5C35.8177 8.93565 28.0643 1.18225 18.5 1.18225C8.93571 1.18225 1.18231 8.93565 1.18231 18.5C1.18231 28.0643 8.93571 35.8177 18.5 35.8177Z" stroke="#707070" stroke-width="2"/>
<path d="M15.4099 27.9791C15.1355 27.9797 14.8637 27.9259 14.6101 27.8209C14.3566 27.7159 14.1263 27.5618 13.9326 27.3674L5.98468 19.4195C5.59836 19.0272 5.38279 18.4981 5.38497 17.9476C5.38714 17.397 5.6069 16.8697 5.99632 16.4805C6.38573 16.0913 6.91322 15.8719 7.46376 15.8701C8.01431 15.8682 8.54325 16.0841 8.93526 16.4707L15.4103 22.9457L28.3544 9.99607C28.7456 9.60489 29.2761 9.38513 29.8293 9.38513C30.3826 9.38513 30.9131 9.60489 31.3043 9.99607C31.6954 10.3872 31.9152 10.9178 31.9152 11.471C31.9152 12.0242 31.6954 12.5547 31.3043 12.9459L16.8824 27.3674C16.6893 27.5611 16.4598 27.7149 16.2071 27.8199C15.9544 27.9249 15.6835 27.979 15.4099 27.9791Z" fill="#1F231F"/>
</svg>
