<svg width="37" height="37" viewBox="0 0 37 37" fill="none" xmlns="http://www.w3.org/2000/svg">
<path d="M18.5 36C28.165 36 36 28.165 36 18.5C36 8.83502 28.165 1 18.5 1C8.83502 1 1 8.83502 1 18.5C1 28.165 8.83502 36 18.5 36Z" fill="white"/>
<path d="M18.5003 35.8177C28.0646 35.8177 35.818 28.0643 35.818 18.5C35.818 8.93565 28.0646 1.18225 18.5003 1.18225C8.93602 1.18225 1.18262 8.93565 1.18262 18.5C1.18262 28.0643 8.93602 35.8177 18.5003 35.8177Z" stroke="#707070" stroke-width="2"/>
<path d="M15.4097 27.9791C15.1353 27.9797 14.8635 27.9259 14.6099 27.8209C14.3564 27.7159 14.1261 27.5618 13.9324 27.3674L5.9845 19.4195C5.59818 19.0272 5.3826 18.4981 5.38478 17.9476C5.38696 17.397 5.60672 16.8697 5.99613 16.4805C6.38555 16.0913 6.91304 15.8719 7.46358 15.8701C8.01413 15.8682 8.54307 16.0841 8.93507 16.4707L15.4101 22.9457L28.3542 9.99607C28.7454 9.60489 29.276 9.38513 29.8292 9.38513C30.3824 9.38513 30.9129 9.60489 31.3041 9.99607C31.6953 10.3872 31.915 10.9178 31.915 11.471C31.915 12.0242 31.6953 12.5547 31.3041 12.9459L16.8823 27.3674C16.6891 27.5611 16.4596 27.7149 16.2069 27.8199C15.9542 27.9249 15.6833 27.979 15.4097 27.9791Z" fill="#1F231F"/>
</svg>
