<svg width="37" height="37" viewBox="0 0 37 37" fill="none" xmlns="http://www.w3.org/2000/svg">
<path d="M18.5 36C28.165 36 36 28.165 36 18.5C36 8.83502 28.165 1 18.5 1C8.83502 1 1 8.83502 1 18.5C1 28.165 8.83502 36 18.5 36Z" fill="white"/>
<path d="M18.5001 35.8177C28.0644 35.8177 35.8178 28.0643 35.8178 18.5C35.8178 8.93565 28.0644 1.18225 18.5001 1.18225C8.93578 1.18225 1.18237 8.93565 1.18237 18.5C1.18237 28.0643 8.93578 35.8177 18.5001 35.8177Z" stroke="#707070" stroke-width="2"/>
<path d="M15.41 27.9791C15.1355 27.9797 14.8637 27.9259 14.6102 27.8209C14.3566 27.7159 14.1264 27.5618 13.9327 27.3674L5.98475 19.4195C5.59842 19.0272 5.38285 18.4981 5.38503 17.9476C5.3872 17.397 5.60696 16.8697 5.99638 16.4805C6.38579 16.0913 6.91328 15.8719 7.46383 15.8701C8.01437 15.8682 8.54331 16.0841 8.93532 16.4707L15.4103 22.9457L28.3545 9.99607C28.7457 9.60489 29.2762 9.38513 29.8294 9.38513C30.3826 9.38513 30.9132 9.60489 31.3043 9.99607C31.6955 10.3872 31.9153 10.9178 31.9153 11.471C31.9153 12.0242 31.6955 12.5547 31.3043 12.9459L16.8825 27.3674C16.6893 27.5611 16.4598 27.7149 16.2072 27.8199C15.9545 27.9249 15.6836 27.979 15.41 27.9791Z" fill="#1F231F"/>
</svg>
