<svg width="35" height="35" viewBox="0 0 35 35" fill="none" xmlns="http://www.w3.org/2000/svg">
<path d="M11.2022 2.5453C12.8292 0.903901 15.1016 0 17.6097 0C20.1312 0 22.4111 0.898432 24.0306 2.52967C25.6676 4.17888 26.4651 6.42028 26.2779 8.84057C25.9067 13.6155 22.0182 17.4999 17.6097 17.4999C13.2012 17.4999 9.31947 13.6163 8.94241 8.84214C8.75262 6.44371 9.55523 4.20701 11.2022 2.5453ZM2.89527 34.9998H32.3242C32.7094 35.0045 33.0908 34.9289 33.4408 34.7784C33.7908 34.628 34.1005 34.4066 34.3474 34.1303C34.8908 33.5232 35.1099 32.6943 34.9477 31.8561C34.2421 28.1983 32.0399 25.1256 28.5787 22.9686C25.5037 21.0538 21.6085 19.9999 17.6097 19.9999C13.6109 19.9999 9.71575 21.0546 6.64077 22.9686C3.17953 25.1249 0.977377 28.1975 0.271752 31.8553C0.109559 32.6936 0.328603 33.5225 0.872034 34.1295C1.11884 34.406 1.42851 34.6275 1.7785 34.7781C2.1285 34.9286 2.51001 35.0044 2.89527 34.9998Z" fill="#3D3D3D"/>
</svg>
