<svg width="202" height="202" viewBox="0 0 202 202" fill="none" xmlns="http://www.w3.org/2000/svg">
<path d="M63.7864 14.69C73.2355 5.2168 86.4331 0 101 0C115.645 0 128.886 5.18524 138.291 14.5998C147.799 24.1181 152.431 37.0542 151.343 51.0227C149.187 78.5811 126.604 100.999 101 100.999C75.3962 100.999 52.8515 78.5857 50.6616 51.0317C49.5594 37.1894 54.2208 24.2804 63.7864 14.69ZM15.5408 201.999H186.459C188.696 202.026 190.912 201.589 192.945 200.721C194.977 199.853 196.776 198.575 198.21 196.98C201.366 193.477 202.638 188.693 201.696 183.855C197.598 162.744 184.808 145.011 164.706 132.562C146.847 121.51 124.225 115.428 101 115.428C77.7755 115.428 55.1531 121.515 37.2941 132.562C17.1917 145.006 4.40199 162.74 0.303833 183.85C-0.63816 188.689 0.634013 193.472 3.79018 196.976C5.22359 198.572 7.0221 199.85 9.05481 200.719C11.0875 201.588 13.3033 202.025 15.5408 201.999Z" fill="white"/>
</svg>
