<svg width="42" height="35" viewBox="0 0 42 35" fill="none" xmlns="http://www.w3.org/2000/svg">
<path d="M25.5 24.75V28.375C25.5 29.3364 25.1049 30.2584 24.4017 30.9383C23.6984 31.6181 22.7446 32 21.75 32H6.75C5.75544 32 4.80161 31.6181 4.09835 30.9383C3.39509 30.2584 3 29.3364 3 28.375V6.625C3 5.66359 3.39509 4.74156 4.09835 4.06174C4.80161 3.38192 5.75544 3 6.75 3H21C23.0709 3 25.5 4.62309 25.5 6.625V10.25M31.5 24.75L39 17.5L31.5 10.25M13.5 17.5H37.5" stroke="black" stroke-width="5" stroke-linecap="round" stroke-linejoin="round"/>
</svg>
