<svg width="35" height="35" viewBox="0 0 35 35" fill="none" xmlns="http://www.w3.org/2000/svg">
<path d="M11.2018 2.5453C12.8287 0.903901 15.1011 0 17.6092 0C20.1308 0 22.4107 0.898432 24.0301 2.52967C25.6671 4.17888 26.4647 6.42028 26.2774 8.84057C25.9062 13.6155 22.0177 17.4999 17.6092 17.4999C13.2007 17.4999 9.31898 13.6163 8.94192 8.84214C8.75214 6.44371 9.55474 4.20701 11.2018 2.5453ZM2.89478 34.9998H32.3237C32.7089 35.0045 33.0903 34.9289 33.4403 34.7784C33.7903 34.628 34.1 34.4066 34.3469 34.1303C34.8903 33.5232 35.1094 32.6943 34.9472 31.8561C34.2416 28.1983 32.0394 25.1256 28.5782 22.9686C25.5032 21.0538 21.608 19.9999 17.6092 19.9999C13.6104 19.9999 9.71526 21.0546 6.64028 22.9686C3.17904 25.1249 0.976889 28.1975 0.271264 31.8553C0.109071 32.6936 0.328115 33.5225 0.871546 34.1295C1.11835 34.406 1.42802 34.6275 1.77802 34.7781C2.12801 34.9286 2.50952 35.0044 2.89478 34.9998Z" fill="#3D3D3D"/>
</svg>
