<svg width="36" height="35" viewBox="0 0 36 35" fill="none" xmlns="http://www.w3.org/2000/svg">
<path d="M11.2145 2.5453C12.8414 0.903901 15.1138 0 17.6219 0C20.1434 0 22.4234 0.898432 24.0428 2.52967C25.6798 4.17888 26.4773 6.42028 26.2901 8.84057C25.9189 13.6155 22.0304 17.4999 17.6219 17.4999C13.2134 17.4999 9.33167 13.6163 8.95461 8.84214C8.76483 6.44371 9.56744 4.20701 11.2145 2.5453ZM2.90748 34.9998H32.3364C32.7216 35.0045 33.103 34.9289 33.453 34.7784C33.803 34.628 34.1127 34.4066 34.3596 34.1303C34.903 33.5232 35.1221 32.6943 34.9599 31.8561C34.2543 28.1983 32.0521 25.1256 28.5909 22.9686C25.5159 21.0538 21.6207 19.9999 17.6219 19.9999C13.6231 19.9999 9.72796 21.0546 6.65297 22.9686C3.19173 25.1249 0.989584 28.1975 0.283959 31.8553C0.121766 32.6936 0.34081 33.5225 0.884241 34.1295C1.13105 34.406 1.44072 34.6275 1.79071 34.7781C2.1407 34.9286 2.52222 35.0044 2.90748 34.9998Z" fill="#3D3D3D"/>
</svg>
