<svg width="35" height="35" viewBox="0 0 35 35" fill="none" xmlns="http://www.w3.org/2000/svg">
<path d="M11.2019 2.5453C12.8289 0.903901 15.1013 0 17.6094 0C20.1309 0 22.4108 0.898432 24.0303 2.52967C25.6672 4.17888 26.4648 6.42028 26.2776 8.84057C25.9064 13.6155 22.0179 17.4999 17.6094 17.4999C13.2009 17.4999 9.31916 13.6163 8.9421 8.84214C8.75232 6.44371 9.55493 4.20701 11.2019 2.5453ZM2.89497 34.9998H32.3239C32.7091 35.0045 33.0905 34.9289 33.4405 34.7784C33.7905 34.628 34.1002 34.4066 34.3471 34.1303C34.8905 33.5232 35.1096 32.6943 34.9474 31.8561C34.2418 28.1983 32.0396 25.1256 28.5784 22.9686C25.5034 21.0538 21.6082 19.9999 17.6094 19.9999C13.6106 19.9999 9.71545 21.0546 6.64046 22.9686C3.17922 25.1249 0.977072 28.1975 0.271447 31.8553C0.109254 32.6936 0.328298 33.5225 0.871729 34.1295C1.11854 34.406 1.42821 34.6275 1.7782 34.7781C2.12819 34.9286 2.5097 35.0044 2.89497 34.9998Z" fill="#3D3D3D"/>
</svg>
