<svg width="35" height="35" viewBox="0 0 35 35" fill="none" xmlns="http://www.w3.org/2000/svg">
<path d="M11.202 2.5453C12.829 0.903901 15.1013 0 17.6095 0C20.131 0 22.4109 0.898432 24.0303 2.52967C25.6673 4.17888 26.4649 6.42028 26.2776 8.84057C25.9064 13.6155 22.018 17.4999 17.6095 17.4999C13.201 17.4999 9.31922 13.6163 8.94216 8.84214C8.75238 6.44371 9.55499 4.20701 11.202 2.5453ZM2.89503 34.9998H32.3239C32.7091 35.0045 33.0906 34.9289 33.4406 34.7784C33.7906 34.628 34.1003 34.4066 34.3472 34.1303C34.8906 33.5232 35.1096 32.6943 34.9474 31.8561C34.2418 28.1983 32.0397 25.1256 28.5784 22.9686C25.5034 21.0538 21.6083 19.9999 17.6095 19.9999C13.6107 19.9999 9.71551 21.0546 6.64052 22.9686C3.17928 25.1249 0.977133 28.1975 0.271508 31.8553C0.109315 32.6936 0.328359 33.5225 0.87179 34.1295C1.1186 34.406 1.42827 34.6275 1.77826 34.7781C2.12825 34.9286 2.50976 35.0044 2.89503 34.9998Z" fill="#3D3D3D"/>
</svg>
